<svg xmlns="http://www.w3.org/2000/svg" xmlns:xlink="http://www.w3.org/1999/xlink" width="500" zoomAndPan="magnify" viewBox="0 0 375 374.999991" height="500" preserveAspectRatio="xMidYMid meet" version="1.0"><defs><clipPath id="5dacc3c0e9"><path d="M 74 29 L 304 29 L 304 358.316406 L 74 358.316406 Z M 74 29 " clip-rule="nonzero"/></clipPath></defs><rect x="-37.5" width="450" fill="#ffffff" y="-37.499999" height="449.999989" fill-opacity="1"/><rect x="-37.5" width="450" fill="#ffffff" y="-37.499999" height="449.999989" fill-opacity="1"/><rect x="-37.5" width="450" fill="#ffffff" y="-37.499999" height="449.999989" fill-opacity="1"/><rect x="-37.5" width="450" fill="#704628" y="-37.499999" height="449.999989" fill-opacity="1"/><g clip-path="url(#5dacc3c0e9)"><path fill="#ffffff" d="M 303.46875 99.316406 L 189.136719 29.566406 L 74.792969 99.316406 L 74.792969 286.042969 L 146.074219 286.042969 L 189.125 360.628906 L 232.25 286.042969 L 303.46875 286.042969 Z M 157.253906 276.949219 L 157.113281 276.707031 L 156.527344 275.570312 C 155.117188 272.964844 154.050781 270.226562 153.324219 267.355469 C 152.601562 264.480469 152.242188 261.5625 152.25 258.597656 C 152.25 240.855469 166.367188 221.695312 189.164062 221.695312 C 189.949219 221.695312 190.738281 221.722656 191.527344 221.773438 C 192.3125 221.824219 193.097656 221.898438 193.878906 222 C 194.660156 222.101562 195.4375 222.226562 196.210938 222.378906 C 196.984375 222.527344 197.753906 222.703125 198.515625 222.902344 C 199.277344 223.105469 200.035156 223.328125 200.78125 223.578125 C 201.53125 223.824219 202.269531 224.097656 203 224.394531 C 203.730469 224.691406 204.453125 225.007812 205.164062 225.351562 C 205.871094 225.691406 206.570312 226.058594 207.257812 226.445312 C 207.945312 226.832031 208.617188 227.242188 209.28125 227.671875 C 209.941406 228.101562 210.585938 228.550781 211.21875 229.023438 C 211.851562 229.496094 212.464844 229.988281 213.066406 230.496094 C 213.664062 231.007812 214.25 231.539062 214.816406 232.085938 C 215.382812 232.636719 215.929688 233.203125 216.460938 233.785156 C 216.988281 234.371094 217.5 234.96875 217.992188 235.585938 C 218.484375 236.203125 218.953125 236.835938 219.40625 237.480469 C 219.855469 238.128906 220.285156 238.789062 220.691406 239.464844 C 221.101562 240.136719 221.488281 240.824219 221.851562 241.523438 C 222.21875 242.222656 222.558594 242.933594 222.878906 243.652344 C 223.195312 244.375 223.492188 245.105469 223.761719 245.84375 C 224.035156 246.585938 224.285156 247.332031 224.507812 248.089844 C 224.730469 248.84375 224.929688 249.609375 225.105469 250.375 C 225.28125 251.144531 225.429688 251.917969 225.558594 252.695312 C 225.683594 253.476562 225.78125 254.257812 225.859375 255.042969 C 225.933594 255.828125 225.984375 256.613281 226.007812 257.402344 C 226.03125 258.1875 226.03125 258.976562 226.007812 259.765625 C 225.980469 260.550781 225.929688 261.339844 225.855469 262.125 C 225.777344 262.910156 225.675781 263.691406 225.550781 264.46875 C 225.425781 265.246094 225.273438 266.019531 225.097656 266.789062 C 224.921875 267.554688 224.71875 268.320312 224.496094 269.074219 C 224.269531 269.828125 224.023438 270.578125 223.75 271.316406 C 223.476562 272.058594 223.179688 272.789062 222.859375 273.507812 C 222.542969 274.230469 222.199219 274.9375 221.832031 275.636719 L 189.164062 332.207031 Z M 289.25 271.804688 L 238.535156 271.804688 C 238.65625 271.351562 238.757812 270.875 238.871094 270.429688 C 238.9375 270.167969 239.011719 269.917969 239.066406 269.65625 C 239.289062 268.679688 239.484375 267.695312 239.644531 266.707031 L 239.644531 266.550781 C 239.792969 265.621094 239.914062 264.691406 240.003906 263.761719 C 240.003906 263.480469 240.003906 263.203125 240.082031 262.933594 C 240.144531 262.199219 240.191406 261.472656 240.230469 260.746094 L 240.230469 259.863281 C 240.230469 259.0625 240.230469 258.273438 240.230469 257.472656 C 240.230469 257.277344 240.230469 257.082031 240.230469 256.886719 C 240.230469 255.894531 240.136719 254.898438 240.042969 253.902344 C 240.042969 253.734375 239.996094 253.578125 239.988281 253.410156 C 239.902344 252.589844 239.792969 251.773438 239.671875 250.953125 C 239.671875 250.667969 239.578125 250.367188 239.523438 250.082031 C 239.402344 249.363281 239.261719 248.65625 239.113281 247.941406 C 239.046875 247.664062 238.992188 247.375 238.925781 247.085938 C 238.730469 246.238281 238.507812 245.402344 238.265625 244.566406 C 238.265625 244.445312 238.203125 244.324219 238.164062 244.203125 C 237.886719 243.273438 237.558594 242.277344 237.234375 241.328125 C 237.152344 241.097656 237.058594 240.863281 236.964844 240.621094 C 236.695312 239.914062 236.414062 239.207031 236.117188 238.511719 C 235.988281 238.214844 235.847656 237.90625 235.710938 237.582031 C 235.410156 236.921875 235.09375 236.269531 234.777344 235.617188 L 234.371094 234.800781 C 233.886719 233.871094 233.394531 232.996094 232.863281 232.113281 C 232.144531 230.933594 231.382812 229.78125 230.570312 228.664062 C 229.757812 227.542969 228.902344 226.457031 228.003906 225.410156 C 227.105469 224.359375 226.164062 223.347656 225.183594 222.375 C 224.203125 221.398438 223.183594 220.46875 222.128906 219.574219 C 221.070312 218.683594 219.980469 217.839844 218.855469 217.035156 C 217.730469 216.234375 216.574219 215.476562 215.386719 214.769531 C 214.199219 214.058594 212.988281 213.398438 211.746094 212.789062 C 210.507812 212.179688 209.242188 211.617188 207.957031 211.109375 C 206.671875 210.601562 205.367188 210.148438 204.046875 209.746094 C 202.722656 209.34375 201.386719 208.996094 200.035156 208.699219 C 198.6875 208.40625 197.324219 208.167969 195.957031 207.984375 C 194.585938 207.800781 193.210938 207.671875 191.832031 207.597656 C 190.449219 207.527344 189.070312 207.511719 187.6875 207.550781 C 186.304688 207.589844 184.929688 207.683594 183.554688 207.835938 C 182.179688 207.988281 180.816406 208.195312 179.457031 208.457031 C 178.101562 208.71875 176.757812 209.035156 175.425781 209.40625 C 174.09375 209.777344 172.777344 210.199219 171.480469 210.679688 C 170.183594 211.15625 168.910156 211.683594 167.65625 212.265625 C 166.398438 212.847656 165.171875 213.476562 163.96875 214.160156 C 162.765625 214.839844 161.589844 215.566406 160.449219 216.34375 C 159.304688 217.117188 158.191406 217.941406 157.117188 218.804688 C 156.039062 219.671875 154.996094 220.578125 153.992188 221.527344 C 152.988281 222.480469 152.027344 223.46875 151.101562 224.496094 C 150.179688 225.523438 149.296875 226.589844 148.460938 227.6875 C 147.621094 228.789062 146.832031 229.921875 146.085938 231.085938 C 145.339844 232.246094 144.640625 233.441406 143.992188 234.660156 C 143.34375 235.878906 142.746094 237.125 142.195312 238.394531 C 141.648438 239.664062 141.152344 240.953125 140.710938 242.261719 C 140.265625 243.570312 139.875 244.894531 139.539062 246.234375 C 139.203125 247.578125 138.921875 248.929688 138.695312 250.292969 C 138.46875 251.65625 138.296875 253.027344 138.183594 254.402344 C 138.066406 255.78125 138.007812 257.160156 138.003906 258.542969 C 138.003906 259.472656 138.003906 260.496094 138.097656 261.453125 C 138.097656 261.558594 138.097656 261.660156 138.097656 261.761719 C 138.152344 262.652344 138.234375 263.546875 138.347656 264.441406 L 138.402344 264.941406 C 138.503906 265.777344 138.636719 266.605469 138.785156 267.425781 C 138.785156 267.65625 138.867188 267.878906 138.90625 268.113281 C 139.054688 268.875 139.222656 269.636719 139.40625 270.402344 C 139.472656 270.679688 139.546875 270.960938 139.621094 271.238281 C 139.695312 271.515625 139.707031 271.589844 139.761719 271.769531 L 89.039062 271.769531 L 89.039062 107.296875 L 189.164062 46.222656 L 289.277344 107.296875 Z M 289.25 271.804688 " fill-opacity="1" fill-rule="nonzero"/></g></svg>